<?xml version="1.0" standalone="no"?>
<!DOCTYPE svg PUBLIC "-//W3C//DTD SVG 20010904//EN"
 "http://www.w3.org/TR/2001/REC-SVG-20010904/DTD/svg10.dtd">
<svg version="1.0" xmlns="http://www.w3.org/2000/svg"
 width="360.000000pt" height="405.000000pt" viewBox="0 0 360.000000 405.000000"
 preserveAspectRatio="xMidYMid meet">

<g transform="translate(0.000000,405.000000) scale(0.100000,-0.100000)"
fill="#000000" stroke="none">
<path d="M2114 3851 c1 -87 -2 -102 -30 -161 -54 -113 -133 -186 -424 -395
-106 -76 -202 -170 -230 -226 -64 -124 5 -264 230 -466 129 -116 152 -131 113
-71 -15 23 -33 50 -40 58 -92 115 -116 150 -138 194 -64 132 -33 253 97 377
15 15 78 65 140 112 274 208 382 391 335 569 -8 31 -24 68 -34 82 l-19 24 0
-97z"/>
<path d="M2310 3361 c-273 -99 -408 -191 -476 -323 -52 -103 -17 -237 95 -356
37 -39 71 -103 71 -131 0 -28 -39 -115 -56 -124 -8 -4 -14 -12 -14 -17 0 -15
67 29 124 81 64 58 101 134 90 182 -9 44 -30 84 -73 137 -77 96 -85 112 -89
175 -4 58 -2 63 37 113 48 60 148 137 276 212 139 82 151 90 135 89 -8 0 -62
-17 -120 -38z"/>
<path d="M2590 2491 c-72 -15 -71 -26 3 -26 85 0 127 -20 169 -80 32 -47 35
-87 11 -142 -35 -76 -110 -145 -238 -218 -91 -51 -86 -56 23 -19 90 30 215 94
256 132 65 61 86 101 86 166 0 77 -27 120 -98 159 -55 30 -148 42 -212 28z"/>
<path d="M1275 2455 c-140 -26 -268 -67 -326 -106 -21 -14 -22 -18 -10 -33 40
-48 232 -70 601 -70 420 0 700 31 810 90 l45 24 -65 -6 c-36 -3 -114 -12 -175
-20 -285 -37 -852 -44 -955 -12 -56 17 -66 47 -23 67 43 20 133 52 188 66 46
12 47 13 15 13 -19 0 -66 -6 -105 -13z"/>
<path d="M1228 2124 c-49 -28 -64 -53 -44 -78 21 -28 91 -55 186 -72 117 -22
476 -25 620 -6 128 17 320 54 320 61 -2 15 -119 63 -141 58 -48 -12 -412 -47
-487 -47 -106 1 -346 26 -371 40 -23 12 -29 55 -8 63 6 3 3 6 -8 6 -11 0 -41
-11 -67 -25z"/>
<path d="M1323 1840 c-70 -31 -78 -73 -20 -109 158 -94 531 -108 844 -29 79
19 138 47 103 48 -8 0 -43 13 -77 29 l-61 29 -104 -15 c-190 -29 -582 -17
-625 19 -8 6 -12 20 -10 30 6 22 3 22 -50 -2z"/>
<path d="M935 1645 c-163 -42 -264 -103 -239 -143 26 -41 178 -68 544 -97 606
-47 1293 19 1498 145 26 16 33 26 30 47 -2 15 -9 29 -17 31 -8 3 -11 0 -8 -6
4 -5 -2 -21 -13 -34 -60 -78 -493 -132 -1050 -131 -307 0 -495 12 -648 43
-128 26 -154 37 -150 63 4 28 75 62 173 82 44 9 81 18 84 21 14 13 -127 0
-204 -21z"/>
<path d="M2871 1474 c-81 -57 -377 -129 -631 -153 -267 -26 -533 -33 -761 -21
-125 6 -253 15 -286 20 -70 9 -80 5 -22 -10 219 -59 909 -67 1268 -14 133 20
274 56 346 90 55 26 115 76 115 95 0 12 -2 12 -29 -7z"/>
<path d="M778 673 c-4 -358 -7 -414 -22 -455 -17 -45 -51 -83 -105 -119 l-24
-15 29 -33 c35 -39 61 -37 132 10 60 40 92 80 114 143 15 45 17 96 18 464 l0
412 -69 0 -69 0 -4 -407z"/>
<path d="M1210 859 c-92 -16 -152 -39 -146 -56 4 -8 9 -26 12 -40 4 -14 12
-22 20 -19 79 30 218 40 270 18 39 -16 64 -59 64 -110 l0 -39 -113 -10 c-176
-16 -252 -59 -283 -158 -16 -48 -15 -55 0 -103 29 -86 90 -117 217 -110 41 2
87 11 104 19 17 9 44 24 60 33 30 16 30 16 35 -12 5 -25 9 -27 63 -30 l57 -3
0 229 c0 294 -11 331 -109 374 -51 24 -170 31 -251 17z m218 -405 l3 -71 -42
-27 c-47 -31 -128 -44 -172 -27 -15 6 -34 26 -43 45 -44 90 41 158 191 153
l60 -2 3 -71z"/>
<path d="M2508 860 c-25 -4 -71 -15 -101 -24 l-55 -16 10 -39 c10 -38 11 -39
41 -30 65 19 161 30 205 23 67 -10 103 -47 109 -111 l5 -51 -93 -7 c-137 -10
-201 -30 -257 -80 -46 -42 -46 -42 -50 -116 -2 -61 1 -80 18 -107 53 -85 237
-99 352 -26 l39 25 10 -31 c10 -28 14 -30 66 -30 l55 0 -4 253 -3 254 -29 37
c-16 22 -49 47 -74 58 -51 23 -171 32 -244 18z m210 -407 l3 -72 -47 -27 c-32
-19 -66 -29 -105 -32 -51 -4 -60 -2 -83 21 -21 21 -26 36 -26 76 0 43 4 52 29
70 38 28 93 40 166 38 l60 -2 3 -72z"/>
<path d="M2925 860 c-3 -5 -1 -10 4 -10 6 0 11 5 11 10 0 6 -2 10 -4 10 -3 0
-8 -4 -11 -10z"/>
<path d="M1660 843 c1 -10 8 -36 16 -58 22 -61 103 -294 119 -345 8 -25 26
-80 41 -122 l26 -78 89 0 89 0 29 62 c16 35 39 86 51 113 36 83 112 333 125
408 l6 38 -73 -3 c-69 -3 -73 -4 -76 -28 -15 -112 -118 -453 -136 -447 -6 2
-16 26 -22 53 -6 27 -25 90 -42 139 -18 50 -47 133 -65 185 l-34 95 -71 3
c-64 3 -72 1 -72 -15z"/>
<path d="M2960 850 c0 -5 5 -10 10 -10 6 0 10 5 10 10 0 6 -4 10 -10 10 -5 0
-10 -4 -10 -10z"/>
</g>
</svg>
